<svg t="1752478525498" class="icon" viewBox="0 0 1024 1024" version="1.1" xmlns="http://www.w3.org/2000/svg" p-id="3359" width="16" height="16"><path d="M670.607 693.286l-317.214 0c-12.582 0-22.681 10.098-22.681 22.681s10.098 22.681 22.681 22.681l317.214 0c12.582 0 22.681-10.098 22.681-22.681s-10.098-22.681-22.681-22.681l0 0zM670.607 580.042l-317.214 0c-12.582 0-22.681 10.098-22.681 22.681s10.098 22.681 22.681 22.681l317.214 0c12.582 0 22.681-10.098 22.681-22.681s-10.098-22.681-22.681-22.681l0 0zM738.647 240.147l-68.042 0 0-45.361-61.051 0c-19.573-27.03-55.769-45.361-97.556-45.361s-77.983 18.331-97.556 45.361l-61.051 0 0 45.361-68.042 0c-50.021 0-90.566 40.545-90.566 90.566l0 453.14c0 50.021 40.545 90.566 90.566 90.566l453.14 0c50.021 0 90.566-40.545 90.566-90.566l0-453.14c0.156-50.021-40.39-90.566-90.41-90.566l0 0zM398.753 240.147l50.332 0c0-25.01 28.118-45.361 62.914-45.361s62.914 20.35 62.914 45.361l50.332 0 0 90.566-226.493 0 0-90.566zM783.853 783.853c0 25.01-20.35 45.361-45.361 45.361l-453.14 0c-25.01 0-45.361-20.35-45.361-45.361l0-453.14c0-25.01 20.35-45.361 45.361-45.361l68.042 0 0 90.566 317.214 0 0-90.566 68.042 0c25.01 0 45.361 20.35 45.361 45.361l0 453.14-0.156 0zM670.607 466.639l-317.214 0c-12.582 0-22.681 10.098-22.681 22.681s10.098 22.681 22.681 22.681l317.214 0c12.582 0 22.681-10.098 22.681-22.681 0-12.428-10.098-22.681-22.681-22.681l0 0zM670.607 466.639z" fill="#272636" p-id="3360"></path></svg>