<svg t="1752478487484" class="icon" viewBox="0 0 1024 1024" version="1.1" xmlns="http://www.w3.org/2000/svg" p-id="2369" width="16" height="16"><path d="M902.74 186.52c-14.44-19.19-35.47-31.82-59.19-35.56-45.43-7.16-105.36-16.93-132.87-22.8-71.95-15.36-154.78-48.94-178.46-58.87-12.95-5.43-27.77-5.36-40.65 0.18-22.06 9.49-100.1 41.77-178.34 58.71-21.71 4.7-67.61 12.59-132.72 22.82-23.74 3.73-44.78 16.35-59.23 35.55-14.46 19.2-20.78 42.9-17.8 66.75l56.77 454.13c0.66 5.32 2.65 10.38 5.78 14.73 2.33 3.24 57.96 79.9 135.34 135.32 89.63 64.2 172.65 92.05 195.96 99.06 4.88 1.47 9.91 2.2 14.95 2.2 4.56 0 9.12-0.6 13.58-1.81 26.69-7.23 119.89-35.87 198.52-100.79 39.94-32.97 75.13-67.74 92.55-85.54 11.97-12.23 22.76-23.81 30.39-32.6 4.08-4.7 7.16-8.5 9.44-11.62 7.96-10.89 9.31-20.45 8.13-27.95l55.65-445.18c2.96-23.83-3.35-47.53-17.8-66.73zM709.88 402.63L472.95 631.39a32.02 32.02 0 0 1-22.23 8.98h-0.56a31.99 31.99 0 0 1-22.46-9.77L313.33 512.13c-12.28-12.71-11.92-32.97 0.79-45.25 12.71-12.28 32.97-11.92 45.25 0.79l92.15 95.44 213.9-206.53c12.71-12.28 32.97-11.92 45.25 0.79 12.28 12.73 11.92 32.98-0.79 45.26z" fill="#333333" p-id="2370"></path></svg>