<svg t="1752485251742" class="icon" viewBox="0 0 1024 1024" version="1.1" xmlns="http://www.w3.org/2000/svg" p-id="4225" width="16" height="16"><path d="M0 0m192 0l640 0q192 0 192 192l0 640q0 192-192 192l-640 0q-192 0-192-192l0-640q0-192 192-192Z" fill="#FF0000" p-id="4226"></path><path d="M945.088 655.488c-16.64 35.712-35.712 45.248-73.792 39.296-23.808-3.584-38.08-17.92-41.664-46.464h44.032c9.536 0 14.272-2.368 14.272-13.056v-44.096c0-11.904-7.104-20.224-20.224-20.224H789.12v124.992h-55.936V570.944h-57.152v-58.368h54.784v-48.768h-35.776v-57.216c11.968 0 23.872-1.152 36.928-2.368V384h57.152c-2.368 15.488 3.584 21.44 20.288 21.44 44.032 1.152 66.624 24.96 67.84 69.056v36.928c35.712-1.216 57.152 13.056 67.84 42.88v101.12zM789.12 461.376c0 17.92-1.152 29.76 0 42.88 0 3.584 5.952 8.32 9.6 8.32 7.04 0 19.008-2.368 20.16-4.736 1.216-13.12 2.432-27.392-2.368-39.296-1.152-4.736-15.488-4.736-27.392-7.168zM237.824 385.28v258.368c0 36.928-23.808 57.152-58.304 51.2-22.656-3.584-35.712-19.072-35.712-46.464h38.08V385.28h55.936z m241.728 0c-14.272 27.392-29.76 54.72-39.296 80.96 22.656-1.216 44.032-2.368 69.12-3.584L472.32 536.32c-1.152 3.584-3.52 5.952-4.736 9.6-11.904 24.96-11.904 24.96 15.488 24.96a40.96 40.96 0 0 1 10.688 1.216c-7.104 15.424-14.272 28.544-21.44 41.6-1.152 2.432-4.736 4.8-7.104 4.8-20.288 0-40.512 1.216-60.8-1.152-14.208-1.28-20.16-13.12-14.208-26.24 7.104-16.64 15.488-33.28 22.592-49.984 2.368-5.952 4.8-11.904 9.536-20.224h-27.392c-23.808-1.28-32.128-11.968-22.592-33.344 15.424-34.56 33.28-67.84 49.984-102.4h57.152zM64 601.92c3.584-20.288 8.32-39.296 10.688-59.52 3.584-25.024 4.8-50.048 5.952-77.44h59.52c-10.688 67.84 2.432 140.48-42.88 203.648-11.84-21.44-22.592-40.512-33.28-59.52v-7.168z m881.088-159.552c-13.056 22.592-33.28 22.592-54.72 19.008-5.952-28.544-2.432-46.4 13.056-53.568 14.336-5.952 27.392-1.216 41.664 16.64v17.92z" fill="#FFFFFF" p-id="4227"></path><path d="M616.512 638.784h45.248c9.472 0 11.904 3.584 13.056 13.12 2.368 45.248 3.584 45.248-41.664 45.248h-161.92c9.536-20.224 17.856-36.928 27.392-53.568C499.776 640 508.16 640 512.896 640h44.032V463.808h-35.712v-56h131.008v54.784h-35.712V638.72zM278.336 464.96h55.936c2.368 34.56 1.216 69.12 9.6 102.4 8.32 38.08-4.8 67.84-23.872 98.816-27.392-23.808-41.664-95.232-41.664-201.216zM379.52 638.784h90.496c-10.688 20.288-17.856 35.776-27.392 52.416-1.152 2.368-5.952 4.736-9.536 4.736H349.76c11.904-22.592 21.44-40.448 29.76-57.152z" fill="#FFFFFF" p-id="4228"></path></svg>